<svg xmlns="http://www.w3.org/2000/svg" viewBox="0 0 443.8 130" enable-background="new 0 0 443.8 130"><style type="text/css">.st0{fill:#86CF00;} .st1{fill:#0091D0;} .st2{fill:#0096D6;}</style><title>Logo</title><g id="g2997"><g id="g3003"><g id="g3005"><path id="path3013" d="M.5 41.2l19.2 36.6c1.5 2.6 4.2 4.3 7.2 4.5l39.3-.1c2.7 0 3.8-2 2.5-4.5L49.5 41.1c-1.5-2.6-4.2-4.3-7.2-4.5H2.8c-2.5.1-3.5 2.1-2.3 4.6" class="st0"/></g></g></g><g id="g3353"><g id="g3355"><g id="g3361"><g id="g3363"><path id="path3371" d="M75.1 83.9l11.6 21.7c.9 1.6 2.5 2.6 4.3 2.7l23.4-.2c1.6 0 2.2-1.2 1.4-2.7l-11.6-21.7c-.9-1.6-2.5-2.5-4.3-2.6l-23.4.2h-.1c-1.5-.1-2.1 1.1-1.3 2.6" class="st0"/></g></g></g></g><g id="g3261"><g id="g3267"><g id="g3269"><path id="path3279" d="M75.2 1.3l-23.4 30c-1.6 2.5-1.8 5.6-.5 8.2L70.9 76c1.3 2.5 3.7 2.9 5.3.8l23.4-30c1.6-2.5 1.8-5.6.5-8.2L80.5 2.1C80 .9 78.8 0 77.5 0c-.9.1-1.7.6-2.3 1.3" class="st1"/></g></g></g><g id="g3413"><g id="g3415"><g id="g3421"><g id="g3423"><path id="path3433" d="M69.8 84.2l-13.9 17.9c-1 1.5-1.1 3.3-.3 4.9l11.6 21.8c.8 1.5 2.2 1.7 3.2.5l13.9-17.9c1-1.5 1.1-3.3.3-4.9L72.9 84.8c-.3-.7-1-1.2-1.8-1.3-.5 0-1 .3-1.3.7" class="st1"/></g></g></g></g><path d="M325.4 31.8h7.8v58.8h-7.8z" class="st2"/><path d="M185.5 50.4c-11.2 0-20.3 9.1-20.3 20.3v37.4h7.8V70.7c0-6.9 5.6-12.5 12.5-12.5S198 63.8 198 70.7s-5.6 12.5-12.5 12.5c-3.8 0-7.3-1.7-9.7-4.6v9.9c9.9 5.3 22.2 1.6 27.5-8.2 5.3-9.9 1.6-22.2-8.2-27.5-2.9-1.6-6.2-2.4-9.6-2.4zM229.5 50.4c-11.2 0-20.3 9.1-20.3 20.3v37.4h7.8V70.7c0-6.9 5.6-12.5 12.5-12.5S242 63.8 242 70.7s-5.6 12.5-12.5 12.5c-3.8 0-7.3-1.7-9.7-4.6v9.9c9.9 5.3 22.2 1.6 27.5-8.2 5.3-9.9 1.6-22.2-8.2-27.5-2.9-1.6-6.2-2.4-9.6-2.4zM140.2 31.8c-11.2 0-20.3 9.1-20.3 20.3v38.5h7.8V52.1c-.2-6.9 5.2-12.6 12.1-12.8 6.9-.2 12.6 5.2 12.8 12.1 0 .2 0 .5 0 .7v4.4h-20v7.8h20.1v26.3h7.8V52.1c0-11.2-9.1-20.3-20.3-20.3z" class="st0"/><path d="M299.3 52.1c0-6.9 5.6-12.5 12.5-12.5h9.8v-7.8h-9.8c-11.2 0-20.3 9.1-20.3 20.3v38.5h7.8V65.1h21.6v-7.8h-21.6v-5.2zM365.9 50.7v24.5c-.2 5-4.4 9-9.4 8.8-4.8-.2-8.6-4-8.8-8.8V50.7h-7.8v24.6c.1 7.7 5.5 14.4 13 16.2v16.7h7.8V91.4c7.5-1.8 12.9-8.5 13-16.2V50.7h-7.8zM409.8 73.8c-1.7 6.7-8.5 10.7-15.1 9s-10.7-8.5-9-15.1c1.7-6.7 8.5-10.7 15.1-9 1.9.5 3.7 1.4 5.2 2.8l-17.5 10.1 3.9 6.8 8.1-4.7 16.4-9.5c-3.6-10.6-15.2-16.3-25.8-12.7-10.6 3.6-16.3 15.2-12.7 25.8 3.6 10.6 15.2 16.3 25.8 12.7 7.2-2.4 12.4-8.7 13.5-16.1l-7.9-.1zM442.2 50.4c-4.5 0-8.9 1.5-12.5 4.3v-4.1H422v40h7.8V70.7c0-6.9 5.6-12.5 12.5-12.5h1.6v-7.8h-1.7z" class="st2"/><path d="M279.4 72.1L260 63c-.9-.5-1.3-1.6-.9-2.6.3-.7 1-1.1 1.7-1.1H283v-7.8h-22.2c-5.4 0-9.7 4.4-9.7 9.7 0 3.8 2.2 7.2 5.6 8.8l19.4 9.1c1 .4 1.4 1.6.9 2.6-.3.7-1 1.1-1.7 1.1h-22.7v7.8h22.7c5.4 0 9.7-4.3 9.7-9.7 0-3.8-2.1-7.2-5.6-8.8z" class="st0"/></svg>